<svg xmlns="http://www.w3.org/2000/svg" width="1200" height="630" viewBox="0 0 1200 630" role="img" aria-label="ALP Contractor Circle Command Center social preview">
  <defs>
    <pattern id="grid" width="48" height="48" patternUnits="userSpaceOnUse">
      <path d="M48 0H0v48" fill="none" stroke="#DCD5C8" stroke-width="1" opacity=".55"/>
    </pattern>
    <filter id="softShadow" x="-20%" y="-20%" width="140%" height="140%">
      <feDropShadow dx="0" dy="26" stdDeviation="28" flood-color="#1C1A17" flood-opacity=".18"/>
    </filter>
  </defs>
  <rect width="1200" height="630" fill="#F7F2EA"/>
  <rect width="1200" height="630" fill="url(#grid)" opacity=".72"/>
  <rect x="54" y="54" width="1092" height="522" rx="34" fill="#F8F4ED" stroke="#DCD5C8"/>
  <g transform="translate(90 92)">
    <rect width="118" height="118" rx="28" fill="#1C1A17"/>
    <path d="M59 26c-17.7 0-32 14.3-32 32s14.3 32 32 32c10.9 0 20.5-5.5 26.3-13.9L72.1 66.6A16.1 16.1 0 1 1 59 41.8h17.1L65.3 52.6l9.7 9.7 27.7-27.7L75 6.9l-9.7 9.7 9.5 9.5H59Z" fill="#F8F4ED"/>
    <circle cx="91" cy="91" r="9" fill="#F76A16"/>
  </g>
  <text x="236" y="130" fill="#F76A16" font-family="Helvetica Neue, Arial, sans-serif" font-size="23" font-weight="700" letter-spacing="5">ALP CONTRACTOR CIRCLE</text>
  <text x="88" y="268" fill="#1C1A17" font-family="Georgia, Times New Roman, serif" font-size="84">Command</text>
  <text x="88" y="345" fill="#1C1A17" font-family="Georgia, Times New Roman, serif" font-size="84">Center</text>
  <text x="88" y="392" fill="#1C1A17" font-family="Helvetica Neue, Arial, sans-serif" font-size="30" font-weight="700">Build the company behind the projects.</text>
  <text x="88" y="441" fill="#6B655D" font-family="Helvetica Neue, Arial, sans-serif" font-size="24">Live calls, AOS, replays, templates,</text>
  <text x="88" y="476" fill="#6B655D" font-family="Helvetica Neue, Arial, sans-serif" font-size="24">Ask Marshall, and the operating process.</text>
  <g filter="url(#softShadow)">
    <rect x="844" y="136" width="236" height="332" rx="26" fill="#1C1A17"/>
    <path d="M882 195H1040" stroke="#DCD5C8" stroke-opacity=".18"/>
    <text x="882" y="234" fill="#F8F4ED" font-family="Helvetica Neue, Arial, sans-serif" font-size="17" font-weight="700">MEMBER PORTAL</text>
    <text x="882" y="282" fill="#F76A16" font-family="Helvetica Neue, Arial, sans-serif" font-size="50" font-weight="700">AOS</text>
    <text x="882" y="330" fill="#F8F4ED" font-family="Helvetica Neue, Arial, sans-serif" font-size="23" font-weight="700">Calls</text>
    <text x="882" y="371" fill="#F8F4ED" font-family="Helvetica Neue, Arial, sans-serif" font-size="23" font-weight="700">Replays</text>
    <text x="882" y="412" fill="#F8F4ED" font-family="Helvetica Neue, Arial, sans-serif" font-size="23" font-weight="700">Ask Marshall</text>
  </g>
  <path d="M88 512H1112" stroke="#DCD5C8"/>
  <text x="88" y="548" fill="#1C1A17" font-family="Helvetica Neue, Arial, sans-serif" font-size="20" font-weight="700">app.alpcontractorcircle.com</text>
</svg>
